<?xml version="1.0" encoding="us-ascii" standalone="no"?><svg xmlns="http://www.w3.org/2000/svg" xmlns:xlink="http://www.w3.org/1999/xlink" contentStyleType="text/css" height="846.4px" preserveAspectRatio="none" style="width:736px;height:846px;background:#FFFFFF;" version="1.1" viewBox="0 0 736 846" width="736.8px" zoomAndPan="magnify"><defs/><g><!--cluster javafx.*--><g id="cluster_javafx.*"><rect fill="none" height="624" rx="2" ry="2" style="stroke:#000000;stroke-width:1.2000000000000002;" width="137.6" x="5.6" y="5.6"/><text fill="#000000" font-family="Consolas" font-size="11.2" font-weight="bold" lengthAdjust="spacing" textLength="51.2" x="48.8" y="17.5031">javafx.*</text></g><!--cluster grid--><g id="cluster_grid"><rect fill="none" height="649.6" rx="2" ry="2" style="stroke:#000000;stroke-width:1.2000000000000002;" width="569.6" x="162.4" y="192"/><text fill="#000000" font-family="Consolas" font-size="11.2" font-weight="bold" lengthAdjust="spacing" textLength="25.6" x="434.4" y="203.9031">grid</text></g><!--cluster model--><g id="cluster_model"><rect fill="none" height="265.6" rx="2" ry="2" style="stroke:#000000;stroke-width:1.2000000000000002;" width="83.2" x="629.6" y="556.8"/><text fill="#000000" font-family="Consolas" font-size="11.2" font-weight="bold" lengthAdjust="spacing" textLength="32" x="655.2" y="568.7031">model</text></g><!--cluster viewmodel--><g id="cluster_viewmodel"><rect fill="none" height="364" rx="2" ry="2" style="stroke:#000000;stroke-width:1.2000000000000002;" width="169.6" x="440.8" y="298.4"/><text fill="#000000" font-family="Consolas" font-size="11.2" font-weight="bold" lengthAdjust="spacing" textLength="57.6" x="496.8" y="310.3031">viewmodel</text></g><!--cluster view--><g id="cluster_view"><rect fill="none" height="357.6" rx="2" ry="2" style="stroke:#000000;stroke-width:1.2000000000000002;" width="240" x="181.6" y="298.4"/><text fill="#000000" font-family="Consolas" font-size="11.2" font-weight="bold" lengthAdjust="spacing" textLength="25.6" x="288.8" y="310.3031">view</text></g><!--class Application--><g id="elem_Application"><rect codeLine="14" fill="#F1F1F1" height="32" id="Application" rx="2" ry="2" style="stroke:#181818;stroke-width:0.4000000000000001;" width="96" x="34.4" y="33.6"/><ellipse cx="46.4" cy="46.4" fill="#ADD1B2" rx="8.8" ry="8.8" style="stroke:#181818;stroke-width:0.8000000000000002;"/><path d="M48.6125,43.1 Q48.7375,42.925 48.8875,42.8375 Q49.0375,42.75 49.2125,42.75 Q49.5125,42.75 49.7,42.9625 Q49.8875,43.1625 49.8875,43.65 L49.8875,44.8125 Q49.8875,45.3 49.7,45.5125 Q49.5125,45.725 49.2125,45.725 Q48.9375,45.725 48.775,45.5625 Q48.6125,45.4125 48.525,45 Q48.4875,44.7125 48.3375,44.5625 Q48.075,44.2625 47.5875,44.0875 Q47.1,43.9125 46.6,43.9125 Q45.9875,43.9125 45.475,44.175 Q44.975,44.4375 44.575,45.0375 Q44.1875,45.6375 44.1875,46.4625 L44.1875,47.3375 Q44.1875,48.325 44.9,48.9875 Q45.6125,49.6375 46.8875,49.6375 Q47.6375,49.6375 48.1625,49.4375 Q48.475,49.3125 48.8125,48.9625 Q49.025,48.75 49.1375,48.6875 Q49.2625,48.625 49.425,48.625 Q49.6875,48.625 49.8875,48.8375 Q50.1,49.0375 50.1,49.3125 Q50.1,49.5875 49.825,49.9125 Q49.425,50.375 48.7875,50.6375 Q47.925,51 46.8875,51 Q45.675,51 44.7125,50.5 Q43.925,50.1 43.375,49.25 Q42.825,48.3875 42.825,47.3625 L42.825,46.4375 Q42.825,45.375 43.3125,44.4625 Q43.8125,43.5375 44.6875,43.05 Q45.5625,42.55 46.55,42.55 Q47.1375,42.55 47.65,42.6875 Q48.175,42.8125 48.6125,43.1 Z " fill="#000000"/><text fill="#000000" font-family="Consolas" font-size="11.2" lengthAdjust="spacing" textLength="70.4" x="57.6" y="50.1461">Application</text><line style="stroke:#181818;stroke-width:0.4000000000000001;" x1="35.2" x2="129.6" y1="59.2" y2="59.2"/></g><!--class Stage--><g id="elem_Stage"><rect codeLine="15" fill="#F1F1F1" height="32" id="Stage" rx="2" ry="2" style="stroke:#181818;stroke-width:0.4000000000000001;" width="57.6" x="53.6" y="113.6"/><ellipse cx="65.6" cy="126.4" fill="#ADD1B2" rx="8.8" ry="8.8" style="stroke:#181818;stroke-width:0.8000000000000002;"/><path d="M67.8125,123.1 Q67.9375,122.925 68.0875,122.8375 Q68.2375,122.75 68.4125,122.75 Q68.7125,122.75 68.9,122.9625 Q69.0875,123.1625 69.0875,123.65 L69.0875,124.8125 Q69.0875,125.3 68.9,125.5125 Q68.7125,125.725 68.4125,125.725 Q68.1375,125.725 67.975,125.5625 Q67.8125,125.4125 67.725,125 Q67.6875,124.7125 67.5375,124.5625 Q67.275,124.2625 66.7875,124.0875 Q66.3,123.9125 65.8,123.9125 Q65.1875,123.9125 64.675,124.175 Q64.175,124.4375 63.775,125.0375 Q63.3875,125.6375 63.3875,126.4625 L63.3875,127.3375 Q63.3875,128.325 64.1,128.9875 Q64.8125,129.6375 66.0875,129.6375 Q66.8375,129.6375 67.3625,129.4375 Q67.675,129.3125 68.0125,128.9625 Q68.225,128.75 68.3375,128.6875 Q68.4625,128.625 68.625,128.625 Q68.8875,128.625 69.0875,128.8375 Q69.3,129.0375 69.3,129.3125 Q69.3,129.5875 69.025,129.9125 Q68.625,130.375 67.9875,130.6375 Q67.125,131 66.0875,131 Q64.875,131 63.9125,130.5 Q63.125,130.1 62.575,129.25 Q62.025,128.3875 62.025,127.3625 L62.025,126.4375 Q62.025,125.375 62.5125,124.4625 Q63.0125,123.5375 63.8875,123.05 Q64.7625,122.55 65.75,122.55 Q66.3375,122.55 66.85,122.6875 Q67.375,122.8125 67.8125,123.1 Z " fill="#000000"/><text fill="#000000" font-family="Consolas" font-size="11.2" lengthAdjust="spacing" textLength="32" x="76.8" y="130.1461">Stage</text><line style="stroke:#181818;stroke-width:0.4000000000000001;" x1="54.4" x2="110.4" y1="139.2" y2="139.2"/></g><!--class Scene--><g id="elem_Scene"><rect codeLine="16" fill="#F1F1F1" height="84.4563" id="Scene" rx="2" ry="2" style="stroke:#181818;stroke-width:0.4000000000000001;" width="112" x="18.4" y="193.6"/><ellipse cx="55" cy="206.4" fill="#ADD1B2" rx="8.8" ry="8.8" style="stroke:#181818;stroke-width:0.8000000000000002;"/><path d="M57.2125,203.1 Q57.3375,202.925 57.4875,202.8375 Q57.6375,202.75 57.8125,202.75 Q58.1125,202.75 58.3,202.9625 Q58.4875,203.1625 58.4875,203.65 L58.4875,204.8125 Q58.4875,205.3 58.3,205.5125 Q58.1125,205.725 57.8125,205.725 Q57.5375,205.725 57.375,205.5625 Q57.2125,205.4125 57.125,205 Q57.0875,204.7125 56.9375,204.5625 Q56.675,204.2625 56.1875,204.0875 Q55.7,203.9125 55.2,203.9125 Q54.5875,203.9125 54.075,204.175 Q53.575,204.4375 53.175,205.0375 Q52.7875,205.6375 52.7875,206.4625 L52.7875,207.3375 Q52.7875,208.325 53.5,208.9875 Q54.2125,209.6375 55.4875,209.6375 Q56.2375,209.6375 56.7625,209.4375 Q57.075,209.3125 57.4125,208.9625 Q57.625,208.75 57.7375,208.6875 Q57.8625,208.625 58.025,208.625 Q58.2875,208.625 58.4875,208.8375 Q58.7,209.0375 58.7,209.3125 Q58.7,209.5875 58.425,209.9125 Q58.025,210.375 57.3875,210.6375 Q56.525,211 55.4875,211 Q54.275,211 53.3125,210.5 Q52.525,210.1 51.975,209.25 Q51.425,208.3875 51.425,207.3625 L51.425,206.4375 Q51.425,205.375 51.9125,204.4625 Q52.4125,203.5375 53.2875,203.05 Q54.1625,202.55 55.15,202.55 Q55.7375,202.55 56.25,202.6875 Q56.775,202.8125 57.2125,203.1 Z " fill="#000000"/><text fill="#000000" font-family="Consolas" font-size="11.2" lengthAdjust="spacing" textLength="32" x="71.4" y="210.1461">Scene</text><line style="stroke:#181818;stroke-width:0.4000000000000001;" x1="19.2" x2="129.6" y1="219.2" y2="219.2"/><text fill="#000000" font-family="Consolas" font-size="11.2" lengthAdjust="spacing" textLength="83.2" x="23.2" y="232.7031">Scene(Parent,</text><text fill="#000000" font-family="Consolas" font-size="11.2" lengthAdjust="spacing" textLength="89.6" x="36" y="245.8172">width: double,</text><text fill="#000000" font-family="Consolas" font-size="11.2" lengthAdjust="spacing" textLength="89.6" x="36" y="258.9313">height: double</text><text fill="#000000" font-family="Consolas" font-size="11.2" lengthAdjust="spacing" textLength="6.4" x="23.2" y="272.0453">)</text></g><!--class BorderPane--><g id="elem_BorderPane"><rect codeLine="19" fill="#F1F1F1" height="32" id="BorderPane" rx="2" ry="2" style="stroke:#181818;stroke-width:0.4000000000000001;" width="89.6" x="40.8" y="332.8"/><ellipse cx="52.8" cy="345.6" fill="#ADD1B2" rx="8.8" ry="8.8" style="stroke:#181818;stroke-width:0.8000000000000002;"/><path d="M55.0125,342.3 Q55.1375,342.125 55.2875,342.0375 Q55.4375,341.95 55.6125,341.95 Q55.9125,341.95 56.1,342.1625 Q56.2875,342.3625 56.2875,342.85 L56.2875,344.0125 Q56.2875,344.5 56.1,344.7125 Q55.9125,344.925 55.6125,344.925 Q55.3375,344.925 55.175,344.7625 Q55.0125,344.6125 54.925,344.2 Q54.8875,343.9125 54.7375,343.7625 Q54.475,343.4625 53.9875,343.2875 Q53.5,343.1125 53,343.1125 Q52.3875,343.1125 51.875,343.375 Q51.375,343.6375 50.975,344.2375 Q50.5875,344.8375 50.5875,345.6625 L50.5875,346.5375 Q50.5875,347.525 51.3,348.1875 Q52.0125,348.8375 53.2875,348.8375 Q54.0375,348.8375 54.5625,348.6375 Q54.875,348.5125 55.2125,348.1625 Q55.425,347.95 55.5375,347.8875 Q55.6625,347.825 55.825,347.825 Q56.0875,347.825 56.2875,348.0375 Q56.5,348.2375 56.5,348.5125 Q56.5,348.7875 56.225,349.1125 Q55.825,349.575 55.1875,349.8375 Q54.325,350.2 53.2875,350.2 Q52.075,350.2 51.1125,349.7 Q50.325,349.3 49.775,348.45 Q49.225,347.5875 49.225,346.5625 L49.225,345.6375 Q49.225,344.575 49.7125,343.6625 Q50.2125,342.7375 51.0875,342.25 Q51.9625,341.75 52.95,341.75 Q53.5375,341.75 54.05,341.8875 Q54.575,342.0125 55.0125,342.3 Z " fill="#000000"/><text fill="#000000" font-family="Consolas" font-size="11.2" lengthAdjust="spacing" textLength="64" x="64" y="349.3461">BorderPane</text><line style="stroke:#181818;stroke-width:0.4000000000000001;" x1="41.6" x2="129.6" y1="358.4" y2="358.4"/></g><!--class GridPane--><g id="elem_GridPane"><rect codeLine="20" fill="#F1F1F1" height="32" id="GridPane" rx="2" ry="2" style="stroke:#181818;stroke-width:0.4000000000000001;" width="76.8" x="50.4" y="445.6"/><ellipse cx="62.4" cy="458.4" fill="#ADD1B2" rx="8.8" ry="8.8" style="stroke:#181818;stroke-width:0.8000000000000002;"/><path d="M64.6125,455.1 Q64.7375,454.925 64.8875,454.8375 Q65.0375,454.75 65.2125,454.75 Q65.5125,454.75 65.7,454.9625 Q65.8875,455.1625 65.8875,455.65 L65.8875,456.8125 Q65.8875,457.3 65.7,457.5125 Q65.5125,457.725 65.2125,457.725 Q64.9375,457.725 64.775,457.5625 Q64.6125,457.4125 64.525,457 Q64.4875,456.7125 64.3375,456.5625 Q64.075,456.2625 63.5875,456.0875 Q63.1,455.9125 62.6,455.9125 Q61.9875,455.9125 61.475,456.175 Q60.975,456.4375 60.575,457.0375 Q60.1875,457.6375 60.1875,458.4625 L60.1875,459.3375 Q60.1875,460.325 60.9,460.9875 Q61.6125,461.6375 62.8875,461.6375 Q63.6375,461.6375 64.1625,461.4375 Q64.475,461.3125 64.8125,460.9625 Q65.025,460.75 65.1375,460.6875 Q65.2625,460.625 65.425,460.625 Q65.6875,460.625 65.8875,460.8375 Q66.1,461.0375 66.1,461.3125 Q66.1,461.5875 65.825,461.9125 Q65.425,462.375 64.7875,462.6375 Q63.925,463 62.8875,463 Q61.675,463 60.7125,462.5 Q59.925,462.1 59.375,461.25 Q58.825,460.3875 58.825,459.3625 L58.825,458.4375 Q58.825,457.375 59.3125,456.4625 Q59.8125,455.5375 60.6875,455.05 Q61.5625,454.55 62.55,454.55 Q63.1375,454.55 63.65,454.6875 Q64.175,454.8125 64.6125,455.1 Z " fill="#000000"/><text fill="#000000" font-family="Consolas" font-size="11.2" lengthAdjust="spacing" textLength="51.2" x="73.6" y="462.1461">GridPane</text><line style="stroke:#181818;stroke-width:0.4000000000000001;" x1="51.2" x2="126.4" y1="471.2" y2="471.2"/></g><!--class StackPane--><g id="elem_StackPane"><rect codeLine="21" fill="#F1F1F1" height="32" id="StackPane" rx="2" ry="2" style="stroke:#181818;stroke-width:0.4000000000000001;" width="83.2" x="47.2" y="584.8"/><ellipse cx="59.2" cy="597.6" fill="#ADD1B2" rx="8.8" ry="8.8" style="stroke:#181818;stroke-width:0.8000000000000002;"/><path d="M61.4125,594.3 Q61.5375,594.125 61.6875,594.0375 Q61.8375,593.95 62.0125,593.95 Q62.3125,593.95 62.5,594.1625 Q62.6875,594.3625 62.6875,594.85 L62.6875,596.0125 Q62.6875,596.5 62.5,596.7125 Q62.3125,596.925 62.0125,596.925 Q61.7375,596.925 61.575,596.7625 Q61.4125,596.6125 61.325,596.2 Q61.2875,595.9125 61.1375,595.7625 Q60.875,595.4625 60.3875,595.2875 Q59.9,595.1125 59.4,595.1125 Q58.7875,595.1125 58.275,595.375 Q57.775,595.6375 57.375,596.2375 Q56.9875,596.8375 56.9875,597.6625 L56.9875,598.5375 Q56.9875,599.525 57.7,600.1875 Q58.4125,600.8375 59.6875,600.8375 Q60.4375,600.8375 60.9625,600.6375 Q61.275,600.5125 61.6125,600.1625 Q61.825,599.95 61.9375,599.8875 Q62.0625,599.825 62.225,599.825 Q62.4875,599.825 62.6875,600.0375 Q62.9,600.2375 62.9,600.5125 Q62.9,600.7875 62.625,601.1125 Q62.225,601.575 61.5875,601.8375 Q60.725,602.2 59.6875,602.2 Q58.475,602.2 57.5125,601.7 Q56.725,601.3 56.175,600.45 Q55.625,599.5875 55.625,598.5625 L55.625,597.6375 Q55.625,596.575 56.1125,595.6625 Q56.6125,594.7375 57.4875,594.25 Q58.3625,593.75 59.35,593.75 Q59.9375,593.75 60.45,593.8875 Q60.975,594.0125 61.4125,594.3 Z " fill="#000000"/><text fill="#000000" font-family="Consolas" font-size="11.2" lengthAdjust="spacing" textLength="57.6" x="70.4" y="601.3461">StackPane</text><line style="stroke:#181818;stroke-width:0.4000000000000001;" x1="48" x2="129.6" y1="610.4" y2="610.4"/></g><!--class GridApp--><g id="elem_GridApp"><rect codeLine="33" fill="#F1F1F1" height="32" id="GridApp" rx="2" ry="2" style="stroke:#181818;stroke-width:0.4000000000000001;" width="70.4" x="220.8" y="220"/><ellipse cx="232.8" cy="232.8" fill="#ADD1B2" rx="8.8" ry="8.8" style="stroke:#181818;stroke-width:0.8000000000000002;"/><path d="M235.0125,229.5 Q235.1375,229.325 235.2875,229.2375 Q235.4375,229.15 235.6125,229.15 Q235.9125,229.15 236.1,229.3625 Q236.2875,229.5625 236.2875,230.05 L236.2875,231.2125 Q236.2875,231.7 236.1,231.9125 Q235.9125,232.125 235.6125,232.125 Q235.3375,232.125 235.175,231.9625 Q235.0125,231.8125 234.925,231.4 Q234.8875,231.1125 234.7375,230.9625 Q234.475,230.6625 233.9875,230.4875 Q233.5,230.3125 233,230.3125 Q232.3875,230.3125 231.875,230.575 Q231.375,230.8375 230.975,231.4375 Q230.5875,232.0375 230.5875,232.8625 L230.5875,233.7375 Q230.5875,234.725 231.3,235.3875 Q232.0125,236.0375 233.2875,236.0375 Q234.0375,236.0375 234.5625,235.8375 Q234.875,235.7125 235.2125,235.3625 Q235.425,235.15 235.5375,235.0875 Q235.6625,235.025 235.825,235.025 Q236.0875,235.025 236.2875,235.2375 Q236.5,235.4375 236.5,235.7125 Q236.5,235.9875 236.225,236.3125 Q235.825,236.775 235.1875,237.0375 Q234.325,237.4 233.2875,237.4 Q232.075,237.4 231.1125,236.9 Q230.325,236.5 229.775,235.65 Q229.225,234.7875 229.225,233.7625 L229.225,232.8375 Q229.225,231.775 229.7125,230.8625 Q230.2125,229.9375 231.0875,229.45 Q231.9625,228.95 232.95,228.95 Q233.5375,228.95 234.05,229.0875 Q234.575,229.2125 235.0125,229.5 Z " fill="#000000"/><text fill="#000000" font-family="Consolas" font-size="11.2" lengthAdjust="spacing" textLength="44.8" x="244" y="236.5461">GridApp</text><line style="stroke:#181818;stroke-width:0.4000000000000001;" x1="221.6" x2="290.4" y1="245.6" y2="245.6"/></g><!--class Board--><g id="elem_Board"><rect codeLine="39" fill="#F1F1F1" height="32" id="Board" rx="2" ry="2" style="stroke:#181818;stroke-width:0.4000000000000001;" width="57.6" x="642.4" y="584.8"/><ellipse cx="654.4" cy="597.6" fill="#ADD1B2" rx="8.8" ry="8.8" style="stroke:#181818;stroke-width:0.8000000000000002;"/><path d="M656.6125,594.3 Q656.7375,594.125 656.8875,594.0375 Q657.0375,593.95 657.2125,593.95 Q657.5125,593.95 657.7,594.1625 Q657.8875,594.3625 657.8875,594.85 L657.8875,596.0125 Q657.8875,596.5 657.7,596.7125 Q657.5125,596.925 657.2125,596.925 Q656.9375,596.925 656.775,596.7625 Q656.6125,596.6125 656.525,596.2 Q656.4875,595.9125 656.3375,595.7625 Q656.075,595.4625 655.5875,595.2875 Q655.1,595.1125 654.6,595.1125 Q653.9875,595.1125 653.475,595.375 Q652.975,595.6375 652.575,596.2375 Q652.1875,596.8375 652.1875,597.6625 L652.1875,598.5375 Q652.1875,599.525 652.9,600.1875 Q653.6125,600.8375 654.8875,600.8375 Q655.6375,600.8375 656.1625,600.6375 Q656.475,600.5125 656.8125,600.1625 Q657.025,599.95 657.1375,599.8875 Q657.2625,599.825 657.425,599.825 Q657.6875,599.825 657.8875,600.0375 Q658.1,600.2375 658.1,600.5125 Q658.1,600.7875 657.825,601.1125 Q657.425,601.575 656.7875,601.8375 Q655.925,602.2 654.8875,602.2 Q653.675,602.2 652.7125,601.7 Q651.925,601.3 651.375,600.45 Q650.825,599.5875 650.825,598.5625 L650.825,597.6375 Q650.825,596.575 651.3125,595.6625 Q651.8125,594.7375 652.6875,594.25 Q653.5625,593.75 654.55,593.75 Q655.1375,593.75 655.65,593.8875 Q656.175,594.0125 656.6125,594.3 Z " fill="#000000"/><text fill="#000000" font-family="Consolas" font-size="11.2" lengthAdjust="spacing" textLength="32" x="665.6" y="601.3461">Board</text><line style="stroke:#181818;stroke-width:0.4000000000000001;" x1="643.2" x2="699.2" y1="610.4" y2="610.4"/></g><!--class Grid--><g id="elem_Grid"><rect codeLine="42" fill="#F1F1F1" height="32" id="Grid" rx="2" ry="2" style="stroke:#181818;stroke-width:0.4000000000000001;" width="51.2" x="645.6" y="697.6"/><ellipse cx="657.6" cy="710.4" fill="#ADD1B2" rx="8.8" ry="8.8" style="stroke:#181818;stroke-width:0.8000000000000002;"/><path d="M659.8125,707.1 Q659.9375,706.925 660.0875,706.8375 Q660.2375,706.75 660.4125,706.75 Q660.7125,706.75 660.9,706.9625 Q661.0875,707.1625 661.0875,707.65 L661.0875,708.8125 Q661.0875,709.3 660.9,709.5125 Q660.7125,709.725 660.4125,709.725 Q660.1375,709.725 659.975,709.5625 Q659.8125,709.4125 659.725,709 Q659.6875,708.7125 659.5375,708.5625 Q659.275,708.2625 658.7875,708.0875 Q658.3,707.9125 657.8,707.9125 Q657.1875,707.9125 656.675,708.175 Q656.175,708.4375 655.775,709.0375 Q655.3875,709.6375 655.3875,710.4625 L655.3875,711.3375 Q655.3875,712.325 656.1,712.9875 Q656.8125,713.6375 658.0875,713.6375 Q658.8375,713.6375 659.3625,713.4375 Q659.675,713.3125 660.0125,712.9625 Q660.225,712.75 660.3375,712.6875 Q660.4625,712.625 660.625,712.625 Q660.8875,712.625 661.0875,712.8375 Q661.3,713.0375 661.3,713.3125 Q661.3,713.5875 661.025,713.9125 Q660.625,714.375 659.9875,714.6375 Q659.125,715 658.0875,715 Q656.875,715 655.9125,714.5 Q655.125,714.1 654.575,713.25 Q654.025,712.3875 654.025,711.3625 L654.025,710.4375 Q654.025,709.375 654.5125,708.4625 Q655.0125,707.5375 655.8875,707.05 Q656.7625,706.55 657.75,706.55 Q658.3375,706.55 658.85,706.6875 Q659.375,706.8125 659.8125,707.1 Z " fill="#000000"/><text fill="#000000" font-family="Consolas" font-size="11.2" lengthAdjust="spacing" textLength="25.6" x="668.8" y="714.1461">Grid</text><line style="stroke:#181818;stroke-width:0.4000000000000001;" x1="646.4" x2="696" y1="723.2" y2="723.2"/></g><!--class Cell--><g id="elem_Cell"><rect codeLine="45" fill="#F1F1F1" height="32" id="Cell" rx="2" ry="2" style="stroke:#181818;stroke-width:0.4000000000000001;" width="51.2" x="645.6" y="777.6"/><ellipse cx="657.6" cy="790.4" fill="#ADD1B2" rx="8.8" ry="8.8" style="stroke:#181818;stroke-width:0.8000000000000002;"/><path d="M659.8125,787.1 Q659.9375,786.925 660.0875,786.8375 Q660.2375,786.75 660.4125,786.75 Q660.7125,786.75 660.9,786.9625 Q661.0875,787.1625 661.0875,787.65 L661.0875,788.8125 Q661.0875,789.3 660.9,789.5125 Q660.7125,789.725 660.4125,789.725 Q660.1375,789.725 659.975,789.5625 Q659.8125,789.4125 659.725,789 Q659.6875,788.7125 659.5375,788.5625 Q659.275,788.2625 658.7875,788.0875 Q658.3,787.9125 657.8,787.9125 Q657.1875,787.9125 656.675,788.175 Q656.175,788.4375 655.775,789.0375 Q655.3875,789.6375 655.3875,790.4625 L655.3875,791.3375 Q655.3875,792.325 656.1,792.9875 Q656.8125,793.6375 658.0875,793.6375 Q658.8375,793.6375 659.3625,793.4375 Q659.675,793.3125 660.0125,792.9625 Q660.225,792.75 660.3375,792.6875 Q660.4625,792.625 660.625,792.625 Q660.8875,792.625 661.0875,792.8375 Q661.3,793.0375 661.3,793.3125 Q661.3,793.5875 661.025,793.9125 Q660.625,794.375 659.9875,794.6375 Q659.125,795 658.0875,795 Q656.875,795 655.9125,794.5 Q655.125,794.1 654.575,793.25 Q654.025,792.3875 654.025,791.3625 L654.025,790.4375 Q654.025,789.375 654.5125,788.4625 Q655.0125,787.5375 655.8875,787.05 Q656.7625,786.55 657.75,786.55 Q658.3375,786.55 658.85,786.6875 Q659.375,786.8125 659.8125,787.1 Z " fill="#000000"/><text fill="#000000" font-family="Consolas" font-size="11.2" lengthAdjust="spacing" textLength="25.6" x="668.8" y="794.1461">Cell</text><line style="stroke:#181818;stroke-width:0.4000000000000001;" x1="646.4" x2="696" y1="803.2" y2="803.2"/></g><!--class BoardViewModel--><g id="elem_BoardViewModel"><rect codeLine="56" fill="#F1F1F1" height="45.1141" id="BoardViewModel" rx="2" ry="2" style="stroke:#181818;stroke-width:0.4000000000000001;" width="144" x="453.6" y="326.4"/><ellipse cx="478.56" cy="339.2" fill="#ADD1B2" rx="8.8" ry="8.8" style="stroke:#181818;stroke-width:0.8000000000000002;"/><path d="M480.7725,335.9 Q480.8975,335.725 481.0475,335.6375 Q481.1975,335.55 481.3725,335.55 Q481.6725,335.55 481.86,335.7625 Q482.0475,335.9625 482.0475,336.45 L482.0475,337.6125 Q482.0475,338.1 481.86,338.3125 Q481.6725,338.525 481.3725,338.525 Q481.0975,338.525 480.935,338.3625 Q480.7725,338.2125 480.685,337.8 Q480.6475,337.5125 480.4975,337.3625 Q480.235,337.0625 479.7475,336.8875 Q479.26,336.7125 478.76,336.7125 Q478.1475,336.7125 477.635,336.975 Q477.135,337.2375 476.735,337.8375 Q476.3475,338.4375 476.3475,339.2625 L476.3475,340.1375 Q476.3475,341.125 477.06,341.7875 Q477.7725,342.4375 479.0475,342.4375 Q479.7975,342.4375 480.3225,342.2375 Q480.635,342.1125 480.9725,341.7625 Q481.185,341.55 481.2975,341.4875 Q481.4225,341.425 481.585,341.425 Q481.8475,341.425 482.0475,341.6375 Q482.26,341.8375 482.26,342.1125 Q482.26,342.3875 481.985,342.7125 Q481.585,343.175 480.9475,343.4375 Q480.085,343.8 479.0475,343.8 Q477.835,343.8 476.8725,343.3 Q476.085,342.9 475.535,342.05 Q474.985,341.1875 474.985,340.1625 L474.985,339.2375 Q474.985,338.175 475.4725,337.2625 Q475.9725,336.3375 476.8475,335.85 Q477.7225,335.35 478.71,335.35 Q479.2975,335.35 479.81,335.4875 Q480.335,335.6125 480.7725,335.9 Z " fill="#000000"/><text fill="#000000" font-family="Consolas" font-size="11.2" lengthAdjust="spacing" textLength="89.6" x="492.64" y="342.9461">BoardViewModel</text><line style="stroke:#181818;stroke-width:0.4000000000000001;" x1="454.4" x2="596.8" y1="352" y2="352"/><text fill="#000000" font-family="Consolas" font-size="11.2" lengthAdjust="spacing" textLength="134.4" x="458.4" y="365.5031">BoardViewModel(Board)</text></g><!--class GridViewModel--><g id="elem_GridViewModel"><rect codeLine="60" fill="#F1F1F1" height="45.1141" id="GridViewModel" rx="2" ry="2" style="stroke:#181818;stroke-width:0.4000000000000001;" width="137.6" x="456.8" y="439.2"/><ellipse cx="481.76" cy="452" fill="#ADD1B2" rx="8.8" ry="8.8" style="stroke:#181818;stroke-width:0.8000000000000002;"/><path d="M483.9725,448.7 Q484.0975,448.525 484.2475,448.4375 Q484.3975,448.35 484.5725,448.35 Q484.8725,448.35 485.06,448.5625 Q485.2475,448.7625 485.2475,449.25 L485.2475,450.4125 Q485.2475,450.9 485.06,451.1125 Q484.8725,451.325 484.5725,451.325 Q484.2975,451.325 484.135,451.1625 Q483.9725,451.0125 483.885,450.6 Q483.8475,450.3125 483.6975,450.1625 Q483.435,449.8625 482.9475,449.6875 Q482.46,449.5125 481.96,449.5125 Q481.3475,449.5125 480.835,449.775 Q480.335,450.0375 479.935,450.6375 Q479.5475,451.2375 479.5475,452.0625 L479.5475,452.9375 Q479.5475,453.925 480.26,454.5875 Q480.9725,455.2375 482.2475,455.2375 Q482.9975,455.2375 483.5225,455.0375 Q483.835,454.9125 484.1725,454.5625 Q484.385,454.35 484.4975,454.2875 Q484.6225,454.225 484.785,454.225 Q485.0475,454.225 485.2475,454.4375 Q485.46,454.6375 485.46,454.9125 Q485.46,455.1875 485.185,455.5125 Q484.785,455.975 484.1475,456.2375 Q483.285,456.6 482.2475,456.6 Q481.035,456.6 480.0725,456.1 Q479.285,455.7 478.735,454.85 Q478.185,453.9875 478.185,452.9625 L478.185,452.0375 Q478.185,450.975 478.6725,450.0625 Q479.1725,449.1375 480.0475,448.65 Q480.9225,448.15 481.91,448.15 Q482.4975,448.15 483.01,448.2875 Q483.535,448.4125 483.9725,448.7 Z " fill="#000000"/><text fill="#000000" font-family="Consolas" font-size="11.2" lengthAdjust="spacing" textLength="83.2" x="495.84" y="455.7461">GridViewModel</text><line style="stroke:#181818;stroke-width:0.4000000000000001;" x1="457.6" x2="593.6" y1="464.8" y2="464.8"/><text fill="#000000" font-family="Consolas" font-size="11.2" lengthAdjust="spacing" textLength="128" x="461.6" y="478.3031">GridViewModel(Board)</text></g><!--class CellViewModel--><g id="elem_CellViewModel"><rect codeLine="64" fill="#F1F1F1" height="97.5703" id="CellViewModel" rx="2" ry="2" style="stroke:#181818;stroke-width:0.4000000000000001;" width="108.8" x="471.2" y="552"/><ellipse cx="483.2" cy="564.8" fill="#ADD1B2" rx="8.8" ry="8.8" style="stroke:#181818;stroke-width:0.8000000000000002;"/><path d="M485.4125,561.5 Q485.5375,561.325 485.6875,561.2375 Q485.8375,561.15 486.0125,561.15 Q486.3125,561.15 486.5,561.3625 Q486.6875,561.5625 486.6875,562.05 L486.6875,563.2125 Q486.6875,563.7 486.5,563.9125 Q486.3125,564.125 486.0125,564.125 Q485.7375,564.125 485.575,563.9625 Q485.4125,563.8125 485.325,563.4 Q485.2875,563.1125 485.1375,562.9625 Q484.875,562.6625 484.3875,562.4875 Q483.9,562.3125 483.4,562.3125 Q482.7875,562.3125 482.275,562.575 Q481.775,562.8375 481.375,563.4375 Q480.9875,564.0375 480.9875,564.8625 L480.9875,565.7375 Q480.9875,566.725 481.7,567.3875 Q482.4125,568.0375 483.6875,568.0375 Q484.4375,568.0375 484.9625,567.8375 Q485.275,567.7125 485.6125,567.3625 Q485.825,567.15 485.9375,567.0875 Q486.0625,567.025 486.225,567.025 Q486.4875,567.025 486.6875,567.2375 Q486.9,567.4375 486.9,567.7125 Q486.9,567.9875 486.625,568.3125 Q486.225,568.775 485.5875,569.0375 Q484.725,569.4 483.6875,569.4 Q482.475,569.4 481.5125,568.9 Q480.725,568.5 480.175,567.65 Q479.625,566.7875 479.625,565.7625 L479.625,564.8375 Q479.625,563.775 480.1125,562.8625 Q480.6125,561.9375 481.4875,561.45 Q482.3625,560.95 483.35,560.95 Q483.9375,560.95 484.45,561.0875 Q484.975,561.2125 485.4125,561.5 Z " fill="#000000"/><text fill="#000000" font-family="Consolas" font-size="11.2" lengthAdjust="spacing" textLength="83.2" x="494.4" y="568.5461">CellViewModel</text><line style="stroke:#181818;stroke-width:0.4000000000000001;" x1="472" x2="579.2" y1="577.6" y2="577.6"/><text fill="#000000" font-family="Consolas" font-size="11.2" lengthAdjust="spacing" textLength="89.6" x="476" y="591.1031">CellViewModel(</text><text fill="#000000" font-family="Consolas" font-size="11.2" lengthAdjust="spacing" textLength="64" x="488.8" y="604.2172">line: int,</text><text fill="#000000" font-family="Consolas" font-size="11.2" lengthAdjust="spacing" textLength="57.6" x="488.8" y="617.3313">col: int,</text><text fill="#000000" font-family="Consolas" font-size="11.2" lengthAdjust="spacing" textLength="32" x="488.8" y="630.4453">Board</text><text fill="#000000" font-family="Consolas" font-size="11.2" lengthAdjust="spacing" textLength="6.4" x="476" y="643.5594">)</text></g><!--class BoardView--><g id="elem_BoardView"><rect codeLine="75" fill="#F1F1F1" height="45.1141" id="BoardView" rx="2" ry="2" style="stroke:#181818;stroke-width:0.4000000000000001;" width="214.4" x="194.4" y="326.4"/><ellipse cx="269.4" cy="339.2" fill="#ADD1B2" rx="8.8" ry="8.8" style="stroke:#181818;stroke-width:0.8000000000000002;"/><path d="M271.6125,335.9 Q271.7375,335.725 271.8875,335.6375 Q272.0375,335.55 272.2125,335.55 Q272.5125,335.55 272.7,335.7625 Q272.8875,335.9625 272.8875,336.45 L272.8875,337.6125 Q272.8875,338.1 272.7,338.3125 Q272.5125,338.525 272.2125,338.525 Q271.9375,338.525 271.775,338.3625 Q271.6125,338.2125 271.525,337.8 Q271.4875,337.5125 271.3375,337.3625 Q271.075,337.0625 270.5875,336.8875 Q270.1,336.7125 269.6,336.7125 Q268.9875,336.7125 268.475,336.975 Q267.975,337.2375 267.575,337.8375 Q267.1875,338.4375 267.1875,339.2625 L267.1875,340.1375 Q267.1875,341.125 267.9,341.7875 Q268.6125,342.4375 269.8875,342.4375 Q270.6375,342.4375 271.1625,342.2375 Q271.475,342.1125 271.8125,341.7625 Q272.025,341.55 272.1375,341.4875 Q272.2625,341.425 272.425,341.425 Q272.6875,341.425 272.8875,341.6375 Q273.1,341.8375 273.1,342.1125 Q273.1,342.3875 272.825,342.7125 Q272.425,343.175 271.7875,343.4375 Q270.925,343.8 269.8875,343.8 Q268.675,343.8 267.7125,343.3 Q266.925,342.9 266.375,342.05 Q265.825,341.1875 265.825,340.1625 L265.825,339.2375 Q265.825,338.175 266.3125,337.2625 Q266.8125,336.3375 267.6875,335.85 Q268.5625,335.35 269.55,335.35 Q270.1375,335.35 270.65,335.4875 Q271.175,335.6125 271.6125,335.9 Z " fill="#000000"/><text fill="#000000" font-family="Consolas" font-size="11.2" lengthAdjust="spacing" textLength="57.6" x="285.8" y="342.9461">BoardView</text><line style="stroke:#181818;stroke-width:0.4000000000000001;" x1="195.2" x2="408" y1="352" y2="352"/><text fill="#000000" font-family="Consolas" font-size="11.2" lengthAdjust="spacing" textLength="204.8" x="199.2" y="365.5031">BoardView(Stage, BoardViewModel)</text></g><!--class GridView--><g id="elem_GridView"><rect codeLine="79" fill="#F1F1F1" height="84.4563" id="GridView" rx="2" ry="2" style="stroke:#181818;stroke-width:0.4000000000000001;" width="182.4" x="210.4" y="419.2"/><ellipse cx="272.6" cy="432" fill="#ADD1B2" rx="8.8" ry="8.8" style="stroke:#181818;stroke-width:0.8000000000000002;"/><path d="M274.8125,428.7 Q274.9375,428.525 275.0875,428.4375 Q275.2375,428.35 275.4125,428.35 Q275.7125,428.35 275.9,428.5625 Q276.0875,428.7625 276.0875,429.25 L276.0875,430.4125 Q276.0875,430.9 275.9,431.1125 Q275.7125,431.325 275.4125,431.325 Q275.1375,431.325 274.975,431.1625 Q274.8125,431.0125 274.725,430.6 Q274.6875,430.3125 274.5375,430.1625 Q274.275,429.8625 273.7875,429.6875 Q273.3,429.5125 272.8,429.5125 Q272.1875,429.5125 271.675,429.775 Q271.175,430.0375 270.775,430.6375 Q270.3875,431.2375 270.3875,432.0625 L270.3875,432.9375 Q270.3875,433.925 271.1,434.5875 Q271.8125,435.2375 273.0875,435.2375 Q273.8375,435.2375 274.3625,435.0375 Q274.675,434.9125 275.0125,434.5625 Q275.225,434.35 275.3375,434.2875 Q275.4625,434.225 275.625,434.225 Q275.8875,434.225 276.0875,434.4375 Q276.3,434.6375 276.3,434.9125 Q276.3,435.1875 276.025,435.5125 Q275.625,435.975 274.9875,436.2375 Q274.125,436.6 273.0875,436.6 Q271.875,436.6 270.9125,436.1 Q270.125,435.7 269.575,434.85 Q269.025,433.9875 269.025,432.9625 L269.025,432.0375 Q269.025,430.975 269.5125,430.0625 Q270.0125,429.1375 270.8875,428.65 Q271.7625,428.15 272.75,428.15 Q273.3375,428.15 273.85,428.2875 Q274.375,428.4125 274.8125,428.7 Z " fill="#000000"/><text fill="#000000" font-family="Consolas" font-size="11.2" lengthAdjust="spacing" textLength="51.2" x="289" y="435.7461">GridView</text><line style="stroke:#181818;stroke-width:0.4000000000000001;" x1="211.2" x2="392" y1="444.8" y2="444.8"/><text fill="#000000" font-family="Consolas" font-size="11.2" lengthAdjust="spacing" textLength="57.6" x="215.2" y="458.3031">GridView(</text><text fill="#000000" font-family="Consolas" font-size="11.2" lengthAdjust="spacing" textLength="89.6" x="228" y="471.4172">GridViewModel,</text><text fill="#000000" font-family="Consolas" font-size="11.2" lengthAdjust="spacing" textLength="160" x="228" y="484.5313">gridWidth: DoubleProperty</text><text fill="#000000" font-family="Consolas" font-size="11.2" lengthAdjust="spacing" textLength="6.4" x="215.2" y="497.6453">)</text></g><!--class CellView--><g id="elem_CellView"><rect codeLine="83" fill="#F1F1F1" height="84.4563" id="CellView" rx="2" ry="2" style="stroke:#181818;stroke-width:0.4000000000000001;" width="182.4" x="210.4" y="558.4"/><ellipse cx="272.6" cy="571.2" fill="#ADD1B2" rx="8.8" ry="8.8" style="stroke:#181818;stroke-width:0.8000000000000002;"/><path d="M274.8125,567.9 Q274.9375,567.725 275.0875,567.6375 Q275.2375,567.55 275.4125,567.55 Q275.7125,567.55 275.9,567.7625 Q276.0875,567.9625 276.0875,568.45 L276.0875,569.6125 Q276.0875,570.1 275.9,570.3125 Q275.7125,570.525 275.4125,570.525 Q275.1375,570.525 274.975,570.3625 Q274.8125,570.2125 274.725,569.8 Q274.6875,569.5125 274.5375,569.3625 Q274.275,569.0625 273.7875,568.8875 Q273.3,568.7125 272.8,568.7125 Q272.1875,568.7125 271.675,568.975 Q271.175,569.2375 270.775,569.8375 Q270.3875,570.4375 270.3875,571.2625 L270.3875,572.1375 Q270.3875,573.125 271.1,573.7875 Q271.8125,574.4375 273.0875,574.4375 Q273.8375,574.4375 274.3625,574.2375 Q274.675,574.1125 275.0125,573.7625 Q275.225,573.55 275.3375,573.4875 Q275.4625,573.425 275.625,573.425 Q275.8875,573.425 276.0875,573.6375 Q276.3,573.8375 276.3,574.1125 Q276.3,574.3875 276.025,574.7125 Q275.625,575.175 274.9875,575.4375 Q274.125,575.8 273.0875,575.8 Q271.875,575.8 270.9125,575.3 Q270.125,574.9 269.575,574.05 Q269.025,573.1875 269.025,572.1625 L269.025,571.2375 Q269.025,570.175 269.5125,569.2625 Q270.0125,568.3375 270.8875,567.85 Q271.7625,567.35 272.75,567.35 Q273.3375,567.35 273.85,567.4875 Q274.375,567.6125 274.8125,567.9 Z " fill="#000000"/><text fill="#000000" font-family="Consolas" font-size="11.2" lengthAdjust="spacing" textLength="51.2" x="289" y="574.9461">CellView</text><line style="stroke:#181818;stroke-width:0.4000000000000001;" x1="211.2" x2="392" y1="584" y2="584"/><text fill="#000000" font-family="Consolas" font-size="11.2" lengthAdjust="spacing" textLength="57.6" x="215.2" y="597.5031">CellView(</text><text fill="#000000" font-family="Consolas" font-size="11.2" lengthAdjust="spacing" textLength="89.6" x="228" y="610.6172">CellViewModel,</text><text fill="#000000" font-family="Consolas" font-size="11.2" lengthAdjust="spacing" textLength="160" x="228" y="623.7313">cellWidth: DoubleProperty</text><text fill="#000000" font-family="Consolas" font-size="11.2" lengthAdjust="spacing" textLength="6.4" x="215.2" y="636.8453">)</text></g><!--link Application to Stage--><!--link Stage to Scene--><g id="link_Stage_Scene"><path codeLine="24" d="M82.4,155.36 C82.4,168.032 82.4,171.872 82.4,188.64 " fill="none" id="Stage-Scene" style="stroke:#181818;stroke-width:0.8000000000000002;"/><polygon fill="#181818" points="82.4,145.76,79.2,150.56,82.4,155.36,85.6,150.56,82.4,145.76" style="stroke:#181818;stroke-width:0.8000000000000002;"/><polygon fill="#181818" points="82.4,193.44,85.6,186.24,82.4,189.44,79.2,186.24,82.4,193.44" style="stroke:#181818;stroke-width:0.8000000000000002;"/><text fill="#000000" font-family="Consolas" font-size="10.4" lengthAdjust="spacing" textLength="5.6" x="77.4988" y="184.5169">1</text></g><!--link Scene to BorderPane--><!--link BorderPane to GridPane--><!--link GridPane to StackPane--><!--reverse link Application to GridApp--><g id="link_Application_GridApp"><path codeLine="35" d="M145.008,49.6 C199.92,49.6 267.736,49.6 267.736,49.6 C267.736,49.6 267.736,174.432 267.736,219.784 " fill="none" id="Application-backto-GridApp" style="stroke:#181818;stroke-width:0.8000000000000002;"/><polygon fill="none" points="130.608,49.6,145.008,54.4,145.008,44.8,130.608,49.6" style="stroke:#181818;stroke-width:0.8000000000000002;"/></g><!--link Board to Grid--><g id="link_Board_Grid"><path codeLine="48" d="M662.664,616.96 C662.664,638.408 662.664,671.24 662.664,692.672 " fill="none" id="Board-to-Grid" style="stroke:#181818;stroke-width:0.8000000000000002;stroke-dasharray:7.0,7.0;"/><polygon fill="#181818" points="662.664,697.472,665.864,690.272,662.664,693.472,659.464,690.272,662.664,697.472" style="stroke:#181818;stroke-width:0.8000000000000002;"/><text fill="#000000" font-family="Consolas" font-size="10.4" lengthAdjust="spacing" textLength="44.8" x="617.064" y="653.9832">&#171;create&#187;</text></g><!--link Board to Grid--><g id="link_Board_Grid"><path codeLine="49" d="M679.736,626.56 C679.736,648.008 679.736,671.24 679.736,692.672 " fill="none" id="Board-Grid" style="stroke:#181818;stroke-width:0.8000000000000002;"/><polygon fill="#181818" points="679.736,616.96,676.536,621.76,679.736,626.56,682.936,621.76,679.736,616.96" style="stroke:#181818;stroke-width:0.8000000000000002;"/><polygon fill="#181818" points="679.736,697.472,682.936,690.272,679.736,693.472,676.536,690.272,679.736,697.472" style="stroke:#181818;stroke-width:0.8000000000000002;"/><text fill="#000000" font-family="Consolas" font-size="10.4" lengthAdjust="spacing" textLength="5.6" x="675.821" y="688.5651">1</text></g><!--link Grid to Cell--><g id="link_Grid_Cell"><path codeLine="50" d="M662.664,739.392 C662.664,753.272 662.664,758.76 662.664,772.632 " fill="none" id="Grid-Cell" style="stroke:#181818;stroke-width:0.8000000000000002;"/><polygon fill="#181818" points="662.664,729.792,659.464,734.592,662.664,739.392,665.864,734.592,662.664,729.792" style="stroke:#181818;stroke-width:0.8000000000000002;"/><polygon fill="#181818" points="662.664,777.432,665.864,770.232,662.664,773.432,659.464,770.232,662.664,777.432" style="stroke:#181818;stroke-width:0.8000000000000002;"/><text fill="#000000" font-family="Consolas" font-size="10.4" lengthAdjust="spacing" textLength="28" x="628.0441" y="768.5134">10x10</text></g><!--link Grid to Cell--><g id="link_Grid_Cell"><path codeLine="51" d="M679.736,729.792 C679.736,743.672 679.736,758.76 679.736,772.632 " fill="none" id="Grid-to-Cell" style="stroke:#181818;stroke-width:0.8000000000000002;stroke-dasharray:7.0,7.0;"/><polygon fill="#181818" points="679.736,777.432,682.936,770.232,679.736,773.432,676.536,770.232,679.736,777.432" style="stroke:#181818;stroke-width:0.8000000000000002;"/><text fill="#000000" font-family="Consolas" font-size="10.4" lengthAdjust="spacing" textLength="44.8" x="634.136" y="750.3832">&#171;create&#187;</text></g><!--link BoardViewModel to GridViewModel--><g id="link_BoardViewModel_GridViewModel"><path codeLine="68" d="M502.664,380.952 C502.664,400.632 502.664,414.624 502.664,434.28 " fill="none" id="BoardViewModel-GridViewModel" style="stroke:#181818;stroke-width:0.8000000000000002;"/><polygon fill="#181818" points="502.664,371.352,499.464,376.152,502.664,380.952,505.864,376.152,502.664,371.352" style="stroke:#181818;stroke-width:0.8000000000000002;"/><polygon fill="#181818" points="502.664,439.08,505.864,431.88,502.664,435.08,499.464,431.88,502.664,439.08" style="stroke:#181818;stroke-width:0.8000000000000002;"/><text fill="#000000" font-family="Consolas" font-size="10.4" lengthAdjust="spacing" textLength="5.6" x="491.1126" y="430.0361">1</text></g><!--link BoardViewModel to GridViewModel--><g id="link_BoardViewModel_GridViewModel"><path codeLine="69" d="M548.536,371.352 C548.536,391.032 548.536,414.624 548.536,434.28 " fill="none" id="BoardViewModel-to-GridViewModel" style="stroke:#181818;stroke-width:0.8000000000000002;stroke-dasharray:7.0,7.0;"/><polygon fill="#181818" points="548.536,439.08,551.736,431.88,548.536,435.08,545.336,431.88,548.536,439.08" style="stroke:#181818;stroke-width:0.8000000000000002;"/><text fill="#000000" font-family="Consolas" font-size="10.4" lengthAdjust="spacing" textLength="44.8" x="502.936" y="401.9832">&#171;create&#187;</text></g><!--link GridViewModel to CellViewModel--><g id="link_GridViewModel_CellViewModel"><path codeLine="70" d="M507.464,484.272 C507.464,502.536 507.464,524.056 507.464,547.064 " fill="none" id="GridViewModel-to-CellViewModel" style="stroke:#181818;stroke-width:0.8000000000000002;stroke-dasharray:7.0,7.0;"/><polygon fill="#181818" points="507.464,551.864,510.664,544.664,507.464,547.864,504.264,544.664,507.464,551.864" style="stroke:#181818;stroke-width:0.8000000000000002;"/><text fill="#000000" font-family="Consolas" font-size="10.4" lengthAdjust="spacing" textLength="44.8" x="461.864" y="514.8392">&#171;create&#187;</text></g><!--link GridViewModel to CellViewModel--><g id="link_GridViewModel_CellViewModel"><path codeLine="71" d="M543.736,493.872 C543.736,512.136 543.736,524.056 543.736,547.064 " fill="none" id="GridViewModel-CellViewModel" style="stroke:#181818;stroke-width:0.8000000000000002;"/><polygon fill="#181818" points="543.736,484.272,540.536,489.072,543.736,493.872,546.936,489.072,543.736,484.272" style="stroke:#181818;stroke-width:0.8000000000000002;"/><polygon fill="#181818" points="543.736,551.864,546.936,544.664,543.736,547.864,540.536,544.664,543.736,551.864" style="stroke:#181818;stroke-width:0.8000000000000002;"/><text fill="#000000" font-family="Consolas" font-size="10.4" lengthAdjust="spacing" textLength="28" x="516.2142" y="543.0912">10x10</text></g><!--link BoardView to GridView--><g id="link_BoardView_GridView"><path codeLine="87" d="M271.2,371.352 C271.2,384.984 271.2,398 271.2,414.2 " fill="none" id="BoardView-to-GridView" style="stroke:#181818;stroke-width:0.8000000000000002;stroke-dasharray:7.0,7.0;"/><polygon fill="#181818" points="271.2,419,274.4,411.8,271.2,415,268,411.8,271.2,419" style="stroke:#181818;stroke-width:0.8000000000000002;"/><text fill="#000000" font-family="Consolas" font-size="10.4" lengthAdjust="spacing" textLength="44.8" x="225.6" y="391.9432">&#171;create&#187;</text></g><!--link BoardView to GridView--><g id="link_BoardView_GridView"><path codeLine="88" d="M332,380.952 C332,394.584 332,398 332,414.2 " fill="none" id="BoardView-GridView" style="stroke:#181818;stroke-width:0.8000000000000002;"/><polygon fill="#181818" points="332,371.352,328.8,376.152,332,380.952,335.2,376.152,332,371.352" style="stroke:#181818;stroke-width:0.8000000000000002;"/><polygon fill="#181818" points="332,419,335.2,411.8,332,415,328.8,411.8,332,419" style="stroke:#181818;stroke-width:0.8000000000000002;"/><text fill="#000000" font-family="Consolas" font-size="10.4" lengthAdjust="spacing" textLength="5.6" x="330.1088" y="410.0716">1</text></g><!--link GridView to CellView--><g id="link_GridView_CellView"><path codeLine="89" d="M332,513.72 C332,530.912 332,536.312 332,553.496 " fill="none" id="GridView-CellView" style="stroke:#181818;stroke-width:0.8000000000000002;"/><polygon fill="#181818" points="332,504.12,328.8,508.92,332,513.72,335.2,508.92,332,504.12" style="stroke:#181818;stroke-width:0.8000000000000002;"/><polygon fill="#181818" points="332,558.296,335.2,551.096,332,554.296,328.8,551.096,332,558.296" style="stroke:#181818;stroke-width:0.8000000000000002;"/><text fill="#000000" font-family="Consolas" font-size="10.4" lengthAdjust="spacing" textLength="28" x="306.2038" y="549.3805">10x10</text></g><!--link GridView to CellView--><g id="link_GridView_CellView"><path codeLine="90" d="M271.2,504.12 C271.2,521.312 271.2,536.312 271.2,553.496 " fill="none" id="GridView-to-CellView" style="stroke:#181818;stroke-width:0.8000000000000002;stroke-dasharray:7.0,7.0;"/><polygon fill="#181818" points="271.2,558.296,274.4,551.096,271.2,554.296,268,551.096,271.2,558.296" style="stroke:#181818;stroke-width:0.8000000000000002;"/><text fill="#000000" font-family="Consolas" font-size="10.4" lengthAdjust="spacing" textLength="44.8" x="225.6" y="527.9752">&#171;create&#187;</text></g><!--link GridApp to Scene--><g id="link_GridApp_Scene"><path codeLine="93" d="M220.768,236 C195.192,236 164.848,236 135.408,236 " fill="none" id="GridApp-to-Scene" style="stroke:#181818;stroke-width:0.8000000000000002;stroke-dasharray:7.0,7.0;"/><polygon fill="#181818" points="130.608,236,137.808,239.2,134.608,236,137.808,232.8,130.608,236" style="stroke:#181818;stroke-width:0.8000000000000002;"/><text fill="#000000" font-family="Consolas" font-size="10.4" lengthAdjust="spacing" textLength="44.8" x="164.888" y="246.3672">&#171;create&#187;</text><text fill="#000000" font-family="Consolas" font-size="10.4" lengthAdjust="spacing" textLength="5.6" x="136.6932" y="232.9753">1</text></g><!--link Stage to GridApp--><g id="link_Stage_GridApp"><path codeLine="94" d="M116.136,129.6 C162.696,129.6 244.264,129.6 244.264,129.6 C244.264,129.6 244.264,180.472 244.264,210.24 " fill="none" id="Stage-GridApp" style="stroke:#181818;stroke-width:0.8000000000000002;"/><polygon fill="#181818" points="111.336,129.6,118.536,132.8,115.336,129.6,118.536,126.4,111.336,129.6" style="stroke:#181818;stroke-width:0.8000000000000002;"/><polygon fill="#181818" points="244.264,219.84,247.464,215.04,244.264,210.24,241.064,215.04,244.264,219.84" style="stroke:#181818;stroke-width:0.8000000000000002;"/><text fill="#000000" font-family="Consolas" font-size="10.4" lengthAdjust="spacing" textLength="5.6" x="117.584" y="126.0034">1</text></g><!--link Scene to BoardView--><g id="link_Scene_BoardView"><path codeLine="95" d="M140.104,265.6 C176.504,265.6 207.6,265.6 207.6,265.6 C207.6,265.6 207.6,296.848 207.6,321.488 " fill="none" id="Scene-BoardView" style="stroke:#181818;stroke-width:0.8000000000000002;"/><polygon fill="#181818" points="130.504,265.6,135.304,268.8,140.104,265.6,135.304,262.4,130.504,265.6" style="stroke:#181818;stroke-width:0.8000000000000002;"/><polygon fill="#181818" points="207.6,326.288,210.8,319.088,207.6,322.288,204.4,319.088,207.6,326.288" style="stroke:#181818;stroke-width:0.8000000000000002;"/><text fill="#000000" font-family="Consolas" font-size="10.4" lengthAdjust="spacing" textLength="5.6" x="182.035" y="317.9605">1</text></g><!--reverse link BorderPane to BoardView--><g id="link_BorderPane_BoardView"><path codeLine="96" d="M145.016,348.8 C163.688,348.8 171.816,348.8 194.304,348.8 " fill="none" id="BorderPane-backto-BoardView" style="stroke:#181818;stroke-width:0.8000000000000002;"/><polygon fill="none" points="130.616,348.8,145.016,353.6,145.016,344,130.616,348.8" style="stroke:#181818;stroke-width:0.8000000000000002;"/></g><!--reverse link GridPane to GridView--><g id="link_GridPane_GridView"><path codeLine="97" d="M141.736,461.6 C164.976,461.6 181.216,461.6 210.32,461.6 " fill="none" id="GridPane-backto-GridView" style="stroke:#181818;stroke-width:0.8000000000000002;"/><polygon fill="none" points="127.336,461.6,141.736,466.4,141.736,456.8,127.336,461.6" style="stroke:#181818;stroke-width:0.8000000000000002;"/></g><!--reverse link StackPane to CellView--><g id="link_StackPane_CellView"><path codeLine="98" d="M144.992,600.8 C167.808,600.8 182.6,600.8 210.384,600.8 " fill="none" id="StackPane-backto-CellView" style="stroke:#181818;stroke-width:0.8000000000000002;"/><polygon fill="none" points="130.592,600.8,144.992,605.6,144.992,596,130.592,600.8" style="stroke:#181818;stroke-width:0.8000000000000002;"/></g><!--link GridApp to Board--><g id="link_GridApp_Board"><path codeLine="100" d="M291.488,231.2 C393.584,231.2 680.8,231.2 680.8,231.2 C680.8,231.2 680.8,508.744 680.8,579.88 " fill="none" id="GridApp-to-Board" style="stroke:#181818;stroke-width:0.8000000000000002;stroke-dasharray:7.0,7.0;"/><polygon fill="#181818" points="680.8,584.68,684,577.48,680.8,580.68,677.6,577.48,680.8,584.68" style="stroke:#181818;stroke-width:0.8000000000000002;"/><text fill="#000000" font-family="Consolas" font-size="10.4" lengthAdjust="spacing" textLength="44.8" x="617.288" y="227.9672">&#171;create&#187;</text></g><!--link GridApp to BoardViewModel--><g id="link_GridApp_BoardViewModel"><path codeLine="101" d="M291.248,241.6 C364.32,241.6 525.6,241.6 525.6,241.6 C525.6,241.6 525.6,290.096 525.6,321.528 " fill="none" id="GridApp-to-BoardViewModel" style="stroke:#181818;stroke-width:0.8000000000000002;stroke-dasharray:7.0,7.0;"/><polygon fill="#181818" points="525.6,326.328,528.8,319.128,525.6,322.328,522.4,319.128,525.6,326.328" style="stroke:#181818;stroke-width:0.8000000000000002;"/><text fill="#000000" font-family="Consolas" font-size="10.4" lengthAdjust="spacing" textLength="44.8" x="405.184" y="238.3672">&#171;create&#187;</text></g><!--link GridApp to BoardView--><g id="link_GridApp_BoardView"><path codeLine="102" d="M256,252.16 C256,271.592 256,299.528 256,321.44 " fill="none" id="GridApp-to-BoardView" style="stroke:#181818;stroke-width:0.8000000000000002;stroke-dasharray:7.0,7.0;"/><polygon fill="#181818" points="256,326.24,259.2,319.04,256,322.24,252.8,319.04,256,326.24" style="stroke:#181818;stroke-width:0.8000000000000002;"/><text fill="#000000" font-family="Consolas" font-size="10.4" lengthAdjust="spacing" textLength="44.8" x="210.4" y="285.9672">&#171;create&#187;</text></g><!--link BoardView to BoardViewModel--><g id="link_BoardView_BoardViewModel"><path codeLine="104" d="M418.608,348.8 C433.656,348.8 434.408,348.8 448.592,348.8 " fill="none" id="BoardView-BoardViewModel" style="stroke:#181818;stroke-width:0.8000000000000002;"/><polygon fill="#181818" points="409.008,348.8,413.808,352,418.608,348.8,413.808,345.6,409.008,348.8" style="stroke:#181818;stroke-width:0.8000000000000002;"/><polygon fill="#181818" points="453.392,348.8,446.192,345.6,449.392,348.8,446.192,352,453.392,348.8" style="stroke:#181818;stroke-width:0.8000000000000002;"/><text fill="#000000" font-family="Consolas" font-size="10.4" lengthAdjust="spacing" textLength="5.6" x="441.5804" y="345.8647">1</text></g><!--link GridView to GridViewModel--><g id="link_GridView_GridViewModel"><path codeLine="105" d="M393.032,461.6 C414.32,461.6 431.84,461.6 451.968,461.6 " fill="none" id="GridView-to-GridViewModel" style="stroke:#181818;stroke-width:0.8000000000000002;stroke-dasharray:7.0,7.0;"/><polygon fill="#181818" points="456.768,461.6,449.568,458.4,452.768,461.6,449.568,464.8,456.768,461.6" style="stroke:#181818;stroke-width:0.8000000000000002;"/><text fill="#000000" font-family="Consolas" font-size="10.4" lengthAdjust="spacing" textLength="28" x="396.096" y="458.3672">&#171;use&#187;</text></g><!--link CellView to CellViewModel--><g id="link_CellView_CellViewModel"><path codeLine="106" d="M393.032,600.8 C419.528,600.8 442.808,600.8 466.272,600.8 " fill="none" id="CellView-to-CellViewModel" style="stroke:#181818;stroke-width:0.8000000000000002;stroke-dasharray:7.0,7.0;"/><polygon fill="#181818" points="471.072,600.8,463.872,597.6,467.072,600.8,463.872,604,471.072,600.8" style="stroke:#181818;stroke-width:0.8000000000000002;"/><text fill="#000000" font-family="Consolas" font-size="10.4" lengthAdjust="spacing" textLength="28" x="403.256" y="597.5672">&#171;use&#187;</text></g><!--link BoardViewModel to Board--><g id="link_BoardViewModel_Board"><path codeLine="108" d="M607.584,348.8 C640.056,348.8 661.6,348.8 661.6,348.8 C661.6,348.8 661.6,524.232 661.6,579.856 " fill="none" id="BoardViewModel-Board" style="stroke:#181818;stroke-width:0.8000000000000002;"/><polygon fill="#181818" points="597.984,348.8,602.784,352,607.584,348.8,602.784,345.6,597.984,348.8" style="stroke:#181818;stroke-width:0.8000000000000002;"/><polygon fill="#181818" points="661.6,584.656,664.8,577.456,661.6,580.656,658.4,577.456,661.6,584.656" style="stroke:#181818;stroke-width:0.8000000000000002;"/><text fill="#000000" font-family="Consolas" font-size="10.4" lengthAdjust="spacing" textLength="5.6" x="652.3575" y="575.7444">1</text></g><!--link GridViewModel to Board--><g id="link_GridViewModel_Board"><path codeLine="109" d="M587.2,493.696 C587.2,531.952 587.2,596 587.2,596 C587.2,596 613.192,596 637.488,596 " fill="none" id="GridViewModel-Board" style="stroke:#181818;stroke-width:0.8000000000000002;"/><polygon fill="#181818" points="587.2,484.096,584,488.896,587.2,493.696,590.4,488.896,587.2,484.096" style="stroke:#181818;stroke-width:0.8000000000000002;"/><polygon fill="#181818" points="642.288,596,635.088,592.8,638.288,596,635.088,599.2,642.288,596" style="stroke:#181818;stroke-width:0.8000000000000002;"/><text fill="#000000" font-family="Consolas" font-size="10.4" lengthAdjust="spacing" textLength="5.6" x="630.4447" y="591.4584">1</text></g><!--link CellViewModel to Board--><g id="link_CellViewModel_Board"><path codeLine="110" d="M589.624,606.4 C610.784,606.4 619.768,606.4 637.552,606.4 " fill="none" id="CellViewModel-Board" style="stroke:#181818;stroke-width:0.8000000000000002;"/><polygon fill="#181818" points="580.024,606.4,584.824,609.6,589.624,606.4,584.824,603.2,580.024,606.4" style="stroke:#181818;stroke-width:0.8000000000000002;"/><polygon fill="#181818" points="642.352,606.4,635.152,603.2,638.352,606.4,635.152,609.6,642.352,606.4" style="stroke:#181818;stroke-width:0.8000000000000002;"/><text fill="#000000" font-family="Consolas" font-size="10.4" lengthAdjust="spacing" textLength="5.6" x="630.2246" y="618.378">1</text></g><!--SRC=[ZLHDRnen4BtxLxXS82YBo1L5I4cgLZsqGa9g3qqEPdV2kXXxvHsIq9R_Ng-NzSUkgS89lvbvVZDlFUCFMC8UQ2KObsICggAew4OXgZqjk8OSkPAatd5PCSqC1i_i8F2JalYDcS879MibM1sa22u1ZnLGfR5KGI0tUVKTekQR0yANNCar_mrq7gHKBD-nBQpnA80sjpEv5K1ANW1bNMLDnXROW-4lQa9gG2gDcjgKmneQAbIQIYM1a3Cb_SLUsFFRR4h_46f-LWozgoh1SsQRzEWQJK5upa72kQxvsVDanJH8l7wKbBxo0ii5BTHX8y0Y9V1jYHtqAAziyIaWlLUw0BrYChpfi-P53p9Yyft5B1WefjbFCuS2v5Es33JRVtIQ6N1qCsh54YSxAEfByCSmAPBK7S84B_1qqOgPzs5hA28F6axJrR2zsxzPvgAdc66sLmM8YETUCTqndqZlWXJ-04B4U4incotRcWMzlSqrC8JbCeYxqJP9RYmTF7-xcOyijmyrZFQsY77Gqmk7rmjzVJUXhq78gN61YJrUfTjFbKVunUf6TgewmYVD9z-y-mNbvoUHA-4Fbjm_0Z9K7m_LmQdCpXwF37oAmztqtrqmSDBhILcMTYjbrCI-pUjUH__nB66NdNMaruwuKVEZNKCVxSvPQLM1ncDlxB6h2KCjVzHqwwT1tiFl-mzzkl2KR6ZWVEH8semu9JGulic8EYyGc-JsOPpLfKmpqIrDkqtRLAVFIIR1fZHBIcT1o6t8Dk1wSblo772TH0BR1PCKvy8NFkDaNc_XX4FN_QxQ3zmFLIVVsQ5kcDoqRTRmSRLPPF36eqj9_zN5qPYr7_q7]--></g></svg>